<?xml version="1.0" encoding="utf-8"?>
<!-- Generator: Adobe Illustrator 23.0.5, SVG Export Plug-In . SVG Version: 6.00 Build 0)  -->
<svg version="1.1" id="Слой_1" xmlns="http://www.w3.org/2000/svg" xmlns:xlink="http://www.w3.org/1999/xlink" x="0px" y="0px"
	 viewBox="0 0 595.28 841.89" style="enable-background:new 0 0 595.28 841.89;" xml:space="preserve">
<style type="text/css">
	.st0{fill:#096000;}
	.st1{fill:#A3A3A3;}
</style>
<g>
	<path class="st0" d="M86.18,525.82c7.85,21.01,25.65,35.37,45.98,39.66c0.23,0.05,0.46,0.09,0.68,0.14c0,0,0.56,0,0.73-0.57
		c0.27-0.92-0.38-1.11-0.38-1.11c-18.98-4.6-33.53-17.1-40.78-36.52c-1.89-5.07-3.08-10.18-3.62-15.22
		c-2.95-3.59-5.14-7.14-6.59-10.5C81.95,509.69,83.21,517.86,86.18,525.82z"/>
	<path class="st0" d="M82.6,496.45c1.48,2.84,3.46,5.69,5.88,8.49c0.09-5.13,0.85-10.15,2.25-14.96c-1.94-2.55-3.55-5.12-4.79-7.7
		C84.29,486.84,83.16,491.6,82.6,496.45z"/>
	<path class="st0" d="M92.03,469.86c1.33,2.11,2.97,4.22,4.88,6.3c1.8-2.91,3.86-5.68,6.19-8.26c-1.85-2.22-3.34-4.45-4.45-6.65
		C96.2,463.94,93.97,466.82,92.03,469.86z"/>
	<path class="st0" d="M192.67,463.97c-16.55-20.04-44.44-28.45-70-18.91c-6.84,2.56-12.96,6.2-18.25,10.66
		c1.28,2.06,2.97,4.12,5.01,6.15c5.25-4.31,11.38-7.88,18.32-10.47c23.69-8.85,46.91-3.43,63.35,13.2c0,0,0.81,1.04,1.59,0.65
		C193.23,464.99,192.67,463.97,192.67,463.97z"/>
</g>
<g>
	<path class="st0" d="M510.71,485.33h-1.53l-32.85,0l-18.49,0c-3.35-0.09-11.91,2.34-14.27,11.26l-6.9,25.68l-1.75,6.53
		c-1.03,3.67-0.1,6.48,1.75,8.32c1.72,1.71,4.24,2.61,6.74,2.61l32.92,0.1l18.47,0.06c4.68,0,12.76-3.99,14.33-11.25l8.7-32.14
		C519.59,489.99,517.26,485.33,510.71,485.33z M493.21,498.34l-7.61,28.31c-0.84,3.38-3.91,5.89-7.41,5.8l-1.86-0.01l-12.5-0.04
		c-3.66,0-5.22-2.42-4.4-5.45l7.52-28.32c0.6-2.67,3.3-5.87,7.44-5.82h1.94l12.54-0.02C490.79,492.72,494.35,494.38,493.21,498.34z"
		/>
	<path class="st0" d="M355.67,496.49c0.97-3.58,0.34-6.6-1.52-8.59c-1.51-1.62-3.84-2.56-6.77-2.56h-0.36l-30.85,0l-19.09,0
		l-0.02,0.07l-24.91-0.05l-16.5-0.02c-4.67,0-12.76,3.99-14.32,11.25l-8.64,31.88l-0.07,0.27c-0.75,2.78-0.72,5.24,0.07,7.13
		c1.06,2.51,3.47,4.03,7.2,4.03h1.38h30.87h2.33l-1.65,6.04h24.19l1.66-6.09l17.49,0.03l16.47,0.03c4.68,0,12.77-3.99,14.33-11.25
		l7.18-26.51L355.67,496.49z M276.53,532.4l-4.37,0.01l-10.64,0c-1.92,0.06-5.48-1.6-4.33-5.55l7.6-28.33
		c0.84-3.36,3.89-5.87,7.37-5.79h0.03l15.17,0.01L276.53,532.4z M331.42,498.34l-7.62,28.31c-0.83,3.38-3.9,5.89-7.4,5.8h-0.23
		l-15.47-0.02l10.83-39.64h4.64l10.92-0.01C329.01,492.72,332.56,494.38,331.42,498.34z"/>
	<path class="st0" d="M232.89,496.93c0.64-2.39,0.54-4.52-0.19-6.27c-1.25-3.02-4.32-4.89-8.46-4.89c-21.53,0-39.46-0.1-61.14-0.1
		l-2.05,7.45l43.43,0c1.92-0.06,5.49,1.7,4.33,5.66l-2.8,10.41h-39.24l-2.03,7.45h39.27l-2.81,10.44c-0.65,2.63-2.64,4.73-5.14,5.49
		c-0.74,0.14-1.51,0.21-2.3,0.21h-43.52l-2.09,7.45l61.71,0.07c4.66,0,12.75-3.99,14.32-11.25l8.51-31.43L232.89,496.93z"/>
	<path class="st0" d="M436.68,486.66l2.17-1.25h-2.17h-13.8l-37.48,21.32c1.86-6.81,3.3-12.16,3.48-12.88
		c1.01-4.4-0.13-8.67-9.56-8.67c-1.6,0-12.27-0.02-12.27-0.02l-12.9,47.6l-1.94,7.16h1.94h22.2c0,0,2.93-10.72,6.04-22.12l8.88-4.91
		l15.35,27.07h25.76l-21.69-38.27L436.68,486.66z"/>
</g>
<g>
	<path class="st0" d="M294.91,556.7l-0.3,1.65h-3.57l-1.69,8.9h-1.99l1.99-10.55H294.91z"/>
	<path class="st0" d="M302.71,563.53h-1.16l-0.71,3.72h-2.02l2.05-10.55h2.03h1c0.48,0,0.92,0.03,1.33,0.12
		c1.25,0.27,2.04,1.06,2.04,2.43C307.25,561.76,305.49,563.53,302.71,563.53z M304.31,558.38c-0.23-0.08-0.51-0.11-0.8-0.11h-0.94
		l-0.71,3.69h1.15c1.35,0,2.09-1.12,2.09-2.4C305.09,558.97,304.85,558.54,304.31,558.38z"/>
	<path class="st0" d="M321.67,556.7c-1.28,2.49-2.66,4.94-4.28,7.5c-1.59,2.57-2.3,3.23-4.05,3.23c-0.41,0-0.89-0.06-1.28-0.15
		l0.29-1.56h1c0.79,0,1.12-0.23,1.68-1.13c-0.82-2.42-1.51-5.08-2.09-7.89h2.13c0.32,1.86,0.76,3.84,1.25,5.47l0.08,0.44h0.02
		l0.23-0.44c0.98-1.68,2.01-3.63,2.9-5.47H321.67z"/>
	<path class="st0" d="M331.47,567.25l1.68-8.81h-4.1l-1.66,8.81h-1.99l1.99-10.55h8.07l-2.01,10.55H331.47z"/>
	<path class="st0" d="M346.4,567.25l1.68-8.81h-4.09l-1.66,8.81h-1.99l1.99-10.55h8.07l-2.01,10.55H346.4z"/>
	<path class="st0" d="M361.8,567.25c-0.06-0.77-0.15-1.65-0.24-2.46h-3.99c-0.42,0.83-0.82,1.68-1.18,2.46h-2.02
		c1.77-3.63,3.6-7.06,5.64-10.55h2.33c0.71,3.54,1.27,7.12,1.62,10.55H361.8z M361.43,563.23c-0.15-1.03-0.32-2.1-0.48-3.16
		c-0.06-0.47-0.12-0.95-0.18-1.44h-0.02c-0.27,0.5-0.53,1.01-0.79,1.48c-0.56,1.03-1.12,2.09-1.66,3.11H361.43z"/>
	<path class="st0" d="M384.19,567.25l-1.99-4.96l-0.89,0.83l-0.79,4.13h-2l2.03-10.55h1.98l-0.79,4.14
		c1.42-1.36,2.83-2.77,4.25-4.14h2.52l-4.68,4.26l2.64,6.29H384.19z"/>
	<path class="st0" d="M397.03,567.46c-2.81,0-4.25-1.31-4.25-3.87c0-3.02,1.59-7.1,6.12-7.1c2.77,0,4.25,1.38,4.25,3.87
		C403.15,563.36,401.67,567.46,397.03,567.46z M398.63,558.17c-2.74,0-3.7,3.1-3.7,5.26c0,1.42,0.6,2.36,2.37,2.36
		c2.43,0,3.7-2.6,3.7-5.21C401,559.07,400.39,558.17,398.63,558.17z"/>
	<path class="st0" d="M418.11,567.25c0.53-2.89,0.98-5.82,1.19-8.42h-0.02l-4.28,8.42h-1.89l-0.95-8.42h-0.03
		c-0.74,2.57-1.48,5.55-2.06,8.42h-1.84c0.68-3.35,1.66-7.09,2.75-10.55h2.86l0.86,7.56h0.02l3.82-7.56h2.95
		c-0.29,3.49-0.76,7.1-1.39,10.55H418.11z"/>
	<path class="st0" d="M432.91,567.25l1.68-8.81h-4.1l-1.66,8.81h-1.99l1.99-10.55h8.07l-2.01,10.55H432.91z"/>
	<path class="st0" d="M448.31,567.25c-0.06-0.77-0.15-1.65-0.24-2.46h-3.99c-0.42,0.83-0.82,1.68-1.18,2.46h-2.02
		c1.77-3.63,3.6-7.06,5.64-10.55h2.33c0.71,3.54,1.27,7.12,1.62,10.55H448.31z M447.95,563.23c-0.15-1.03-0.32-2.1-0.48-3.16
		c-0.06-0.47-0.12-0.95-0.18-1.44h-0.02c-0.27,0.5-0.53,1.01-0.79,1.48c-0.56,1.03-1.12,2.09-1.66,3.11H447.95z"/>
	<path class="st0" d="M464.46,567.25h-1.99l0.88-4.59h-4.03l-0.88,4.59h-2.02l2.05-10.55h2.03l-0.83,4.22h4.03l0.83-4.22h1.99
		L464.46,567.25z"/>
	<path class="st0" d="M477.7,567.25l1.07-5.67l0.32-1.51l-1.21,1.48l-4.81,5.7h-1.74l1.99-10.55h1.96l-1.09,5.67l-0.32,1.51
		l1.21-1.48l4.82-5.7h1.72l-1.99,10.55H477.7z"/>
	<path class="st0" d="M492.87,567.25l1.07-5.67l0.32-1.51l-1.21,1.48l-4.81,5.7h-1.74l1.99-10.55h1.96l-1.09,5.67l-0.32,1.51
		l1.21-1.48l4.82-5.7h1.72l-1.99,10.55H492.87z M496.1,553.6c-0.21,1.47-1.39,2.54-3.28,2.54c-1.6,0-2.45-0.76-2.45-1.9
		c0-0.21,0.01-0.42,0.08-0.63h1.63c-0.17,0.82,0.09,1.28,0.92,1.28c0.77,0,1.27-0.47,1.41-1.28H496.1z"/>
</g>
<path class="st0" d="M85.53,470.35c0.57,19.09,22.6,37.73,50.11,48.62c0.89,0.35,0.27,0.12,1.17,0.46l13.36-15.57
	c-33.16-9.02-63.24-32.07-59.25-49.77C88.4,459.22,85.32,463.47,85.53,470.35z"/>
<g>
	<g>
		<g>
			<path class="st1" d="M106.59,436.09c-1.66,1.1-3.64,2.53-5.17,4.56c-2.78,3.4-4.01,8.05-3.02,13.05
				c2.54,12.78,18.75,27.11,42.4,36.74l8.29-9.02C118.39,471.97,93.46,449.15,106.59,436.09L106.59,436.09z"/>
		</g>
	</g>
	<path class="st1" d="M121.26,532.75c1.74-2.07,5.17-5.96,7.34-8.53c-23.05-7.17-51.28-32.47-46.18-45.28
		c-7.72,19.43,12.11,41.12,38.24,53.52L121.26,532.75z"/>
</g>
</svg>
